<?xml version="1.0" encoding="UTF-8"?> <svg xmlns="http://www.w3.org/2000/svg" xmlns:xlink="http://www.w3.org/1999/xlink" version="1.1" id="Layer_1" x="0px" y="0px" viewBox="0 0 191.7 31.6" xml:space="preserve"> <path fill="#11AC8E" d="M16.3,3.1v20.4h-3.3v-8.9H3.3v8.9H0V3.1h3.3v8.7h9.6V3.1H16.3z"></path> <path fill="#11AC8E" d="M35.4,16.7H23c0.1,1.3,0.6,2.3,1.4,3.1c0.9,0.8,1.9,1.2,3.2,1.2c1.8,0,3.1-0.8,3.8-2.3H35 c-0.5,1.5-1.4,2.7-2.7,3.7s-2.9,1.4-4.8,1.4c-1.5,0-2.9-0.3-4.1-1c-1.2-0.7-2.2-1.7-2.9-2.9c-0.7-1.3-1-2.7-1-4.4 c0-1.7,0.3-3.1,1-4.4c0.7-1.3,1.6-2.2,2.8-2.9c1.2-0.7,2.6-1,4.2-1c1.5,0,2.9,0.3,4.1,1s2.1,1.6,2.8,2.8s1,2.6,1,4.1 C35.5,15.6,35.4,16.2,35.4,16.7z M32,14c0-1.2-0.5-2.2-1.3-3c-0.9-0.7-1.9-1.1-3.2-1.1c-1.2,0-2.1,0.4-3,1.1c-0.8,0.7-1.3,1.7-1.5,3 H32z"></path> <path fill="#11AC8E" d="M38.7,11c0.7-1.3,1.6-2.2,2.8-2.9c1.2-0.7,2.4-1,3.9-1c1.3,0,2.4,0.2,3.3,0.7c0.9,0.5,1.7,1.1,2.3,1.9V7.3 h3.4v16.2h-3.4v-2.4c-0.6,0.8-1.3,1.4-2.3,1.9c-1,0.5-2.1,0.8-3.3,0.8c-1.4,0-2.7-0.4-3.8-1.1c-1.2-0.7-2.1-1.7-2.7-3s-1-2.7-1-4.4 C37.6,13.7,38,12.3,38.7,11z M50.2,12.5c-0.5-0.8-1.1-1.4-1.8-1.9C47.6,10.2,46.8,10,46,10c-0.9,0-1.7,0.2-2.4,0.6 c-0.7,0.4-1.3,1-1.8,1.8c-0.5,0.8-0.7,1.8-0.7,2.9c0,1.1,0.2,2.1,0.7,2.9c0.5,0.8,1.1,1.5,1.8,1.9c0.8,0.4,1.5,0.7,2.4,0.7 c0.9,0,1.7-0.2,2.4-0.6c0.7-0.4,1.3-1.1,1.8-1.9c0.5-0.8,0.7-1.8,0.7-2.9C50.9,14.3,50.6,13.3,50.2,12.5z"></path> <path fill="#11AC8E" d="M62,1.8v21.7h-3.3V1.8H62z"></path> <path fill="#11AC8E" d="M70.3,10.1V19c0,0.6,0.1,1,0.4,1.3c0.3,0.3,0.8,0.4,1.5,0.4h2.1v2.8h-2.6c-1.5,0-2.7-0.4-3.5-1.1 c-0.8-0.7-1.2-1.8-1.2-3.4v-8.9H65V7.3h1.9v-4h3.4v4h3.9v2.7H70.3z"></path> <path fill="#11AC8E" d="M88.9,7.9c1,0.5,1.7,1.3,2.3,2.3s0.8,2.3,0.8,3.8v9.5h-3.3v-9c0-1.4-0.4-2.6-1.1-3.3C87,10.4,86,10,84.7,10 s-2.2,0.4-3,1.2s-1.1,1.9-1.1,3.3v9h-3.3V1.8h3.3v7.4c0.6-0.7,1.3-1.2,2.2-1.6c0.9-0.4,1.8-0.6,2.9-0.6C86.9,7.1,88,7.3,88.9,7.9z"></path> <path fill="#F7923E" d="M111.3,14.7c0.7,0.9,1.1,2,1.1,3.2c0,1.7-0.6,3.1-1.8,4.1s-2.9,1.5-5,1.5h-9.6V2.9h9.3 c2.1,0,3.7,0.5,4.9,1.4c1.2,1,1.8,2.3,1.8,3.9c0,1.2-0.3,2.2-1,3c-0.6,0.8-1.5,1.4-2.5,1.7C109.6,13.2,110.6,13.8,111.3,14.7z M101,11.2h3.3c0.8,0,1.5-0.2,1.9-0.5c0.4-0.4,0.7-0.9,0.7-1.6s-0.2-1.2-0.7-1.6c-0.4-0.4-1.1-0.6-1.9-0.6H101V11.2z M106.6,18.9 c0.5-0.4,0.7-0.9,0.7-1.7c0-0.7-0.2-1.3-0.7-1.7c-0.5-0.4-1.1-0.6-2-0.6H101v4.5h3.7C105.5,19.4,106.1,19.3,106.6,18.9z"></path> <path fill="#F7923E" d="M122.5,7.7c0.9-0.5,1.9-0.8,2.9-0.8v5.3H124c-1.3,0-2.2,0.3-2.8,0.8c-0.6,0.5-0.9,1.5-0.9,2.8v7.6h-5V7.1h5 v2.7C120.9,9,121.6,8.2,122.5,7.7z"></path> <path fill="#F7923E" d="M128.2,4.6c-0.6-0.5-0.8-1.2-0.8-1.9c0-0.8,0.3-1.4,0.8-1.9c0.6-0.5,1.3-0.8,2.2-0.8c0.9,0,1.6,0.3,2.1,0.8 c0.6,0.5,0.8,1.2,0.8,1.9c0,0.8-0.3,1.4-0.8,1.9c-0.6,0.5-1.3,0.8-2.1,0.8C129.5,5.4,128.7,5.2,128.2,4.6z M132.8,7.1v16.4h-5V7.1 H132.8z"></path> <path fill="#F7923E" d="M136.4,10.8c0.6-1.3,1.5-2.2,2.6-2.9c1.1-0.7,2.3-1,3.7-1c1.1,0,2.1,0.2,2.9,0.7c0.9,0.5,1.6,1.1,2.1,1.8 V1.8h5v21.7h-5v-2.3c-0.5,0.8-1.1,1.4-2,1.9c-0.9,0.5-1.9,0.7-3,0.7c-1.3,0-2.6-0.3-3.7-1c-1.1-0.7-2-1.7-2.6-3 c-0.6-1.3-1-2.8-1-4.4C135.5,13.6,135.8,12.1,136.4,10.8z M146.7,12.3c-0.7-0.7-1.5-1.1-2.5-1.1s-1.8,0.4-2.5,1.1 c-0.7,0.7-1,1.7-1,2.9c0,1.3,0.3,2.2,1,3c0.7,0.7,1.5,1.1,2.5,1.1s1.8-0.4,2.5-1.1c0.7-0.7,1-1.7,1-3 C147.7,14.1,147.4,13.1,146.7,12.3z"></path> <path fill="#F7923E" d="M165.6,7.6c0.9,0.5,1.5,1.1,2,1.8V7.1h5v16.3c0,1.5-0.3,2.9-0.9,4.1c-0.6,1.2-1.5,2.2-2.7,2.9 c-1.2,0.7-2.7,1.1-4.6,1.1c-2.4,0-4.4-0.6-5.9-1.7c-1.5-1.1-2.4-2.7-2.6-4.6h5c0.2,0.6,0.5,1.1,1.1,1.5c0.6,0.4,1.3,0.5,2.2,0.5 c1,0,1.9-0.3,2.5-0.9c0.6-0.6,0.9-1.5,0.9-2.9v-2.3c-0.5,0.8-1.2,1.4-2,1.9c-0.9,0.5-1.9,0.7-3,0.7c-1.3,0-2.6-0.3-3.7-1 c-1.1-0.7-2-1.7-2.6-3c-0.6-1.3-1-2.8-1-4.4c0-1.7,0.3-3.2,1-4.4c0.6-1.3,1.5-2.2,2.6-2.9c1.1-0.7,2.3-1,3.7-1 C163.7,6.9,164.8,7.1,165.6,7.6z M166.6,12.3c-0.7-0.7-1.5-1.1-2.5-1.1s-1.8,0.4-2.5,1.1c-0.7,0.7-1,1.7-1,2.9c0,1.3,0.3,2.2,1,3 c0.7,0.7,1.5,1.1,2.5,1.1s1.8-0.4,2.5-1.1c0.7-0.7,1-1.7,1-3C167.6,14.1,167.3,13.1,166.6,12.3z"></path> <path fill="#F7923E" d="M191.6,16.5h-11.3c0.1,1,0.4,1.8,1,2.3c0.6,0.5,1.3,0.8,2.1,0.8c1.3,0,2.1-0.5,2.6-1.6h5.3 c-0.3,1.1-0.8,2-1.5,2.9c-0.7,0.9-1.6,1.5-2.7,2c-1.1,0.5-2.3,0.7-3.6,0.7c-1.6,0-3-0.3-4.3-1c-1.3-0.7-2.2-1.7-2.9-2.9 c-0.7-1.3-1.1-2.8-1.1-4.5c0-1.7,0.3-3.2,1-4.5c0.7-1.3,1.7-2.2,2.9-2.9c1.3-0.7,2.7-1,4.3-1c1.6,0,3,0.3,4.2,1s2.2,1.6,2.9,2.8 c0.7,1.2,1,2.7,1,4.3C191.7,15.5,191.7,16,191.6,16.5z M186.6,13.7c0-0.9-0.3-1.5-0.9-2.1c-0.6-0.5-1.3-0.8-2.2-0.8 c-0.8,0-1.5,0.2-2.1,0.7c-0.6,0.5-0.9,1.2-1.1,2.1H186.6z"></path> </svg> 